# xmcd CD database file
# Copyright (C) 1997 Ti Kan
# 
# Track frame offsets:
#     183
#     12758
#     25033
#     38833
#     50645
#     63495
#     75233
#     87758
#     97795
#     110520
#     122658
#     135620
#     146445
#     157095
#     167508
#     177933
#     188520
#     199720
#     210020
#     221508
#     237270
#     249245
#     261433
#     273970
#     285908
#     295020
#     306770
# 
# Disc length: 4267 seconds
# 
# Revision: 1
# Processed by: cddbd v1.4b41PL1 Copyright (c) Steve Scherf et al.
# Submitted via: DiscPlay 4.0.3
# 
DISCID=6110a91b
DTITLE=Jimmy Reed - Bright Lights, Big City
DYEAR=1900
DGENRE=
TTITLE0=High And Lonesome
TTITLE1=Jimmie's Boogie
TTITLE2=You Don't Have To Go
TTITLE3=Boogie In The Dark
TTITLE4=You Upset My Mind
TTITLE5=She Don't Want Me No More
TTITLE6=I Don't Go For That
TTITLE7=Ain't That Loving You Baby
TTITLE8=You Got Me So Dizzy
TTITLE9=Honest I Do
TTITLE10=The Sun Is Shinning
TTITLE11=Ends And Odds
TTITLE12=My Bitter Seed
TTITLE13=Going To New York
TTITLE14=Take Out Some Insurance
TTITLE15=Baby What You Want Me To Do
TTITLE16=Hush-Hush
TTITLE17=Found Love
TTITLE18=You Gonna Need My Help
TTITLE19=Found Joy
TTITLE20=Kind Of Lonesome
TTITLE21=Blue Carnegie
TTITLE22=Big Boss Man
TTITLE23=Sugar Sugar
TTITLE24=Jimmy's Rock
TTITLE25=Bright Lights, Big City
TTITLE26=I'm Going Upside Your Head
EXTD=
EXTT0=
EXTT1=
EXTT2=
EXTT3=
EXTT4=
EXTT5=
EXTT6=
EXTT7=
EXTT8=
EXTT9=
EXTT10=
EXTT11=
EXTT12=
EXTT13=
EXTT14=
EXTT15=
EXTT16=
EXTT17=
EXTT18=
EXTT19=
EXTT20=
EXTT21=
EXTT22=
EXTT23=
EXTT24=
EXTT25=
EXTT26=
PLAYORDER=
